# xmcd
#
# Track frame offsets:
#	150
#	13880
#	37557
#	56162
#	70100
#	84315
#	99860
#	121072
#	144490
#	157565
#	173467
#	186132
#
# Disc length: 2609 seconds
#
# Revision: 1
# Processed by: cddbd v1.5.2PL0 Copyright (c) Steve Scherf et al.
# Submitted via: audiograbber 1.83.01
#
DISCID=800a2f0c
DTITLE=The Hold Outs - Moon Over Bolinas 0351 A
DYEAR=1996
DGENRE=Country
TTITLE0=If Only Whenever
TTITLE1=I'd Go Anywhere
TTITLE2=Outbound Line
TTITLE3=All Roads
TTITLE4=Ultranectar
TTITLE5=Ridgetops
TTITLE6=Carlifornia Cowboy
TTITLE7=Old Question
TTITLE8=Desert Dog's Dance
TTITLE9=Moon Over Bolinas
TTITLE10=Rockabilly Roadhouse
TTITLE11=If Only Whenever (Reprise)
EXTD=
EXTT0=
EXTT1=
EXTT2=
EXTT3=
EXTT4=
EXTT5=
EXTT6=
EXTT7=
EXTT8=
EXTT9=
EXTT10=
EXTT11=
PLAYORDER=
